<svg xmlns="http://www.w3.org/2000/svg" xmlns:xlink="http://www.w3.org/1999/xlink" width="1940" zoomAndPan="magnify" viewBox="0 0 1455 1229.999941" height="1640" preserveAspectRatio="xMidYMid meet" version="1.0"><defs><g/><clipPath id="e9f9533b3e"><path d="M 510.515625 297.394531 L 944.765625 297.394531 L 944.765625 790.894531 L 510.515625 790.894531 Z M 510.515625 297.394531 " clip-rule="nonzero"/></clipPath><clipPath id="ed91454e1e"><path d="M 510.515625 297.394531 L 605 297.394531 L 605 411 L 510.515625 411 Z M 510.515625 297.394531 " clip-rule="nonzero"/></clipPath></defs><g clip-path="url(#e9f9533b3e)"><path fill="#737373" d="M 925.089844 573.824219 C 915.347656 557.589844 902.894531 544.332031 888.292969 534.511719 C 898.394531 526.640625 906.824219 517.5 913.476562 507.140625 C 924.660156 489.703125 930.34375 469.714844 930.34375 447.730469 C 930.34375 353.804688 863.28125 297.714844 750.96875 297.714844 L 643.882812 297.714844 L 643.882812 410.207031 L 690.351562 410.207031 L 690.351562 410.539062 L 759.027344 410.539062 C 803.539062 410.539062 807.226562 430.59375 807.226562 444.136719 C 807.226562 452.039062 815.289062 481.640625 759.027344 481.640625 L 735.511719 481.640625 L 735.511719 591.851562 L 769.59375 591.851562 C 798.976562 591.851562 821.324219 605.285156 821.324219 633.605469 C 821.324219 670.367188 776.785156 675.371094 769.59375 675.371094 L 604.027344 675.371094 L 604.027344 449.808594 L 510.496094 449.808594 L 510.496094 790.160156 L 750.96875 790.160156 C 807.769531 790.160156 852.957031 779.371094 885.253906 758.101562 C 924.53125 732.246094 944.445312 691.890625 944.445312 638.195312 C 944.445312 618.113281 937.207031 594.050781 925.089844 573.824219 " fill-opacity="1" fill-rule="nonzero"/></g><g clip-path="url(#ed91454e1e)"><path fill="#61a6ab" d="M 604.027344 297.714844 L 604.027344 410.207031 L 510.496094 410.207031 L 510.496094 297.714844 L 604.027344 297.714844 " fill-opacity="1" fill-rule="nonzero"/></g><g fill="#737373" fill-opacity="1"><g transform="translate(536.136554, 900.269214)"><g><path d="M 72.375 -53.34375 C 72.375 -47.40625 70.8125 -42.875 67.6875 -39.75 C 71.125 -36.625 72.84375 -31.96875 72.84375 -25.78125 L 72.84375 -19.5 C 72.84375 -18.0625 72.78125 -16.671875 72.65625 -15.328125 C 72.53125 -13.984375 72.34375 -12.71875 72.09375 -11.53125 C 71.84375 -10.34375 71.515625 -9.234375 71.109375 -8.203125 C 70.703125 -7.171875 70.1875 -6.21875 69.5625 -5.34375 C 68.5 -3.65625 66.9375 -2.3125 64.875 -1.3125 C 63 -0.375 60.65625 0.09375 57.84375 0.09375 L 15.65625 0.09375 C 14.21875 0.09375 12.859375 -0.265625 11.578125 -0.984375 C 10.296875 -1.703125 9.28125 -2.6875 8.53125 -3.9375 C 8.03125 -4.8125 7.6875 -5.78125 7.5 -6.84375 L 7.59375 -70.875 C 7.71875 -71.25 7.859375 -71.640625 8.015625 -72.046875 C 8.171875 -72.453125 8.34375 -72.84375 8.53125 -73.21875 C 10.03125 -75.65625 12.1875 -76.96875 15 -77.15625 L 15 -77.25 L 56.4375 -77.25 C 62.1875 -77.25 66.28125 -75.65625 68.71875 -72.46875 C 71.15625 -69.40625 72.375 -64.78125 72.375 -58.59375 Z M 21.28125 -14.34375 C 21.28125 -14.15625 21.296875 -14.03125 21.328125 -13.96875 C 21.359375 -13.90625 21.375 -13.875 21.375 -13.875 L 54 -13.875 C 55.875 -13.875 57.1875 -14.28125 57.9375 -15.09375 C 58.6875 -15.96875 59.0625 -17.46875 59.0625 -19.59375 L 59.0625 -25.96875 C 59.0625 -27.96875 58.65625 -29.46875 57.84375 -30.46875 C 56.96875 -31.46875 55.34375 -31.96875 52.96875 -31.96875 L 34.78125 -31.96875 C 33.96875 -31.96875 33.25 -32.265625 32.625 -32.859375 C 32 -33.453125 31.6875 -34.1875 31.6875 -35.0625 L 31.6875 -42.75 C 31.6875 -43.625 32 -44.359375 32.625 -44.953125 C 33.25 -45.546875 33.96875 -45.84375 34.78125 -45.84375 L 52.96875 -45.84375 C 55.40625 -45.84375 57 -46.28125 57.75 -47.15625 C 58.5625 -48.03125 58.96875 -49.40625 58.96875 -51.28125 L 58.96875 -57.75 C 58.96875 -59.8125 58.59375 -61.25 57.84375 -62.0625 C 57.09375 -62.9375 55.8125 -63.375 54 -63.375 L 21.46875 -63.375 C 21.34375 -63.375 21.28125 -63.1875 21.28125 -62.8125 Z M 21.28125 -14.34375 "/></g></g></g><g fill="#61a6ab" fill-opacity="1"><g transform="translate(609.453177, 900.269214)"><g><path d="M 71.34375 -70.40625 C 73.15625 -68.15625 74.5 -65.09375 75.375 -61.21875 C 75.75 -59.40625 76.046875 -57.375 76.265625 -55.125 C 76.484375 -52.875 76.59375 -50.46875 76.59375 -47.90625 L 76.59375 -29.34375 C 76.59375 -26.71875 76.484375 -24.28125 76.265625 -22.03125 C 76.046875 -19.78125 75.75 -17.75 75.375 -15.9375 C 74.5 -12.125 73.15625 -9.03125 71.34375 -6.65625 C 69.40625 -4.21875 66.96875 -2.5 64.03125 -1.5 C 61.03125 -0.4375 57.5 0.09375 53.4375 0.09375 L 30.5625 0.09375 C 26.4375 0.09375 22.9375 -0.4375 20.0625 -1.5 C 17.125 -2.5 14.6875 -4.25 12.75 -6.75 C 10.875 -9.1875 9.53125 -12.25 8.71875 -15.9375 C 8.28125 -17.75 7.96875 -19.78125 7.78125 -22.03125 C 7.59375 -24.28125 7.5 -26.71875 7.5 -29.34375 L 7.5 -47.90625 C 7.5 -53.28125 7.90625 -57.71875 8.71875 -61.21875 C 9.53125 -64.90625 10.875 -67.96875 12.75 -70.40625 C 14.6875 -72.78125 17.125 -74.53125 20.0625 -75.65625 C 23.0625 -76.71875 26.5625 -77.25 30.5625 -77.25 L 53.4375 -77.25 C 57.5 -77.25 61.03125 -76.71875 64.03125 -75.65625 C 66.96875 -74.53125 69.40625 -72.78125 71.34375 -70.40625 Z M 62.625 -49.5 C 62.625 -50.875 62.59375 -52.140625 62.53125 -53.296875 C 62.46875 -54.453125 62.34375 -55.5 62.15625 -56.4375 C 61.90625 -58.1875 61.375 -59.59375 60.5625 -60.65625 C 59.9375 -61.53125 59 -62.21875 57.75 -62.71875 C 57.125 -62.90625 56.421875 -63.0625 55.640625 -63.1875 C 54.859375 -63.3125 53.96875 -63.375 52.96875 -63.375 L 31.03125 -63.375 C 30.03125 -63.375 29.140625 -63.3125 28.359375 -63.1875 C 27.578125 -63.0625 26.875 -62.90625 26.25 -62.71875 C 25 -62.21875 24.0625 -61.53125 23.4375 -60.65625 C 23.0625 -60.15625 22.75 -59.546875 22.5 -58.828125 C 22.25 -58.109375 22.03125 -57.3125 21.84375 -56.4375 C 21.71875 -55.5 21.609375 -54.453125 21.515625 -53.296875 C 21.421875 -52.140625 21.375 -50.875 21.375 -49.5 L 21.375 -27.65625 C 21.375 -26.28125 21.421875 -25.015625 21.515625 -23.859375 C 21.609375 -22.703125 21.71875 -21.65625 21.84375 -20.71875 C 22.03125 -19.90625 22.25 -19.140625 22.5 -18.421875 C 22.75 -17.703125 23.0625 -17.09375 23.4375 -16.59375 C 24.0625 -15.59375 25 -14.90625 26.25 -14.53125 C 27.375 -14.09375 28.96875 -13.875 31.03125 -13.875 L 52.96875 -13.875 C 55.03125 -13.875 56.625 -14.09375 57.75 -14.53125 C 59 -14.90625 59.9375 -15.59375 60.5625 -16.59375 C 61.3125 -17.53125 61.84375 -18.90625 62.15625 -20.71875 C 62.34375 -21.65625 62.46875 -22.703125 62.53125 -23.859375 C 62.59375 -25.015625 62.625 -26.28125 62.625 -27.65625 Z M 62.625 -49.5 "/></g></g></g><g fill="#61a6ab" fill-opacity="1"><g transform="translate(686.502137, 900.269214)"><g><path d="M 71.34375 -70.40625 C 73.15625 -68.15625 74.5 -65.09375 75.375 -61.21875 C 75.75 -59.40625 76.046875 -57.375 76.265625 -55.125 C 76.484375 -52.875 76.59375 -50.46875 76.59375 -47.90625 L 76.59375 -29.34375 C 76.59375 -26.71875 76.484375 -24.28125 76.265625 -22.03125 C 76.046875 -19.78125 75.75 -17.75 75.375 -15.9375 C 74.5 -12.125 73.15625 -9.03125 71.34375 -6.65625 C 69.40625 -4.21875 66.96875 -2.5 64.03125 -1.5 C 61.03125 -0.4375 57.5 0.09375 53.4375 0.09375 L 30.5625 0.09375 C 26.4375 0.09375 22.9375 -0.4375 20.0625 -1.5 C 17.125 -2.5 14.6875 -4.25 12.75 -6.75 C 10.875 -9.1875 9.53125 -12.25 8.71875 -15.9375 C 8.28125 -17.75 7.96875 -19.78125 7.78125 -22.03125 C 7.59375 -24.28125 7.5 -26.71875 7.5 -29.34375 L 7.5 -47.90625 C 7.5 -53.28125 7.90625 -57.71875 8.71875 -61.21875 C 9.53125 -64.90625 10.875 -67.96875 12.75 -70.40625 C 14.6875 -72.78125 17.125 -74.53125 20.0625 -75.65625 C 23.0625 -76.71875 26.5625 -77.25 30.5625 -77.25 L 53.4375 -77.25 C 57.5 -77.25 61.03125 -76.71875 64.03125 -75.65625 C 66.96875 -74.53125 69.40625 -72.78125 71.34375 -70.40625 Z M 62.625 -49.5 C 62.625 -50.875 62.59375 -52.140625 62.53125 -53.296875 C 62.46875 -54.453125 62.34375 -55.5 62.15625 -56.4375 C 61.90625 -58.1875 61.375 -59.59375 60.5625 -60.65625 C 59.9375 -61.53125 59 -62.21875 57.75 -62.71875 C 57.125 -62.90625 56.421875 -63.0625 55.640625 -63.1875 C 54.859375 -63.3125 53.96875 -63.375 52.96875 -63.375 L 31.03125 -63.375 C 30.03125 -63.375 29.140625 -63.3125 28.359375 -63.1875 C 27.578125 -63.0625 26.875 -62.90625 26.25 -62.71875 C 25 -62.21875 24.0625 -61.53125 23.4375 -60.65625 C 23.0625 -60.15625 22.75 -59.546875 22.5 -58.828125 C 22.25 -58.109375 22.03125 -57.3125 21.84375 -56.4375 C 21.71875 -55.5 21.609375 -54.453125 21.515625 -53.296875 C 21.421875 -52.140625 21.375 -50.875 21.375 -49.5 L 21.375 -27.65625 C 21.375 -26.28125 21.421875 -25.015625 21.515625 -23.859375 C 21.609375 -22.703125 21.71875 -21.65625 21.84375 -20.71875 C 22.03125 -19.90625 22.25 -19.140625 22.5 -18.421875 C 22.75 -17.703125 23.0625 -17.09375 23.4375 -16.59375 C 24.0625 -15.59375 25 -14.90625 26.25 -14.53125 C 27.375 -14.09375 28.96875 -13.875 31.03125 -13.875 L 52.96875 -13.875 C 55.03125 -13.875 56.625 -14.09375 57.75 -14.53125 C 59 -14.90625 59.9375 -15.59375 60.5625 -16.59375 C 61.3125 -17.53125 61.84375 -18.90625 62.15625 -20.71875 C 62.34375 -21.65625 62.46875 -22.703125 62.53125 -23.859375 C 62.59375 -25.015625 62.625 -26.28125 62.625 -27.65625 Z M 62.625 -49.5 "/></g></g></g><g fill="#737373" fill-opacity="1"><g transform="translate(763.560634, 900.269214)"><g><path d="M 52.78125 -46.125 C 57.65625 -46.125 61.375 -44.40625 63.9375 -40.96875 C 66.375 -37.59375 67.59375 -32.84375 67.59375 -26.71875 L 67.59375 -18.46875 C 67.59375 -13.09375 66.40625 -8.6875 64.03125 -5.25 C 61.59375 -1.75 57.78125 0 52.59375 0 L 10.3125 0 C 9.875 0 9.3125 -0.171875 8.625 -0.515625 C 7.9375 -0.859375 7.59375 -1.75 7.59375 -3.1875 L 7.59375 -10.6875 C 7.59375 -12.125 7.9375 -13.015625 8.625 -13.359375 C 9.3125 -13.703125 9.875 -13.875 10.3125 -13.875 L 50.34375 -13.875 C 51.15625 -13.875 51.734375 -14.015625 52.078125 -14.296875 C 52.421875 -14.578125 52.6875 -14.84375 52.875 -15.09375 C 53.4375 -16.03125 53.71875 -17.34375 53.71875 -19.03125 L 53.71875 -27.09375 C 53.71875 -29.40625 53.34375 -30.84375 52.59375 -31.40625 C 51.84375 -31.96875 51.125 -32.25 50.4375 -32.25 L 22.3125 -32.25 C 20.375 -32.25 18.390625 -32.5 16.359375 -33 C 14.328125 -33.5 12.59375 -34.71875 11.15625 -36.65625 C 8.71875 -40.09375 7.5 -45.09375 7.5 -51.65625 L 7.5 -58.78125 C 7.5 -64.28125 8.71875 -68.71875 11.15625 -72.09375 C 13.59375 -75.53125 17.375 -77.25 22.5 -77.25 L 62.90625 -77.25 C 63.28125 -77.25 63.8125 -77.078125 64.5 -76.734375 C 65.1875 -76.390625 65.53125 -75.5 65.53125 -74.0625 L 65.53125 -66.5625 C 65.53125 -65.125 65.1875 -64.234375 64.5 -63.890625 C 63.8125 -63.546875 63.28125 -63.375 62.90625 -63.375 L 24.75 -63.375 C 23.9375 -63.375 23.359375 -63.25 23.015625 -63 C 22.671875 -62.75 22.40625 -62.46875 22.21875 -62.15625 C 21.71875 -61.15625 21.46875 -59.84375 21.46875 -58.21875 L 21.46875 -51.28125 C 21.46875 -48.96875 21.828125 -47.53125 22.546875 -46.96875 C 23.265625 -46.40625 23.96875 -46.125 24.65625 -46.125 Z M 52.78125 -46.125 "/></g></g></g><g fill="#737373" fill-opacity="1"><g transform="translate(831.610936, 900.269214)"><g><path d="M 72.28125 -77.25 C 72.71875 -77.25 73.28125 -77.078125 73.96875 -76.734375 C 74.65625 -76.390625 75 -75.5 75 -74.0625 L 75 -66.75 C 75 -65.1875 74.65625 -64.234375 73.96875 -63.890625 C 73.28125 -63.546875 72.71875 -63.375 72.28125 -63.375 L 48.1875 -63.375 L 48.1875 -3.1875 C 48.1875 -1.75 47.859375 -0.859375 47.203125 -0.515625 C 46.546875 -0.171875 46 0 45.5625 0 L 36.9375 0 C 36.5625 0 36.03125 -0.171875 35.34375 -0.515625 C 34.65625 -0.859375 34.3125 -1.75 34.3125 -3.1875 L 34.3125 -63.375 L 10.21875 -63.375 C 9.78125 -63.375 9.21875 -63.546875 8.53125 -63.890625 C 7.84375 -64.234375 7.5 -65.1875 7.5 -66.75 L 7.5 -74.0625 C 7.5 -75.5 7.84375 -76.390625 8.53125 -76.734375 C 9.21875 -77.078125 9.78125 -77.25 10.21875 -77.25 Z M 72.28125 -77.25 "/></g></g></g></svg>